{"title":"Out of the Furnace 2013 1080p.BluRay.5.1 x264 . NVEE","uid":10552360,"size":2809416731,"categoryP":"video","categoryS":"hd___movies","magnet":"?xt=urn:btih:ab2db5676274fb77274c4d93536f6ba3211b7784&amp;dn=Out+of+the+Furnace+2013+1080p.BluRay.5.1+x264+.+NVEE&amp;tr=udp%3A%2F%2Ftracker.openbittorrent.com%3A80&amp;tr=udp%3A%2F%2Fopen.demonii.com%3A1337&amp;tr=udp%3A%2F%2Ftracker.coppersurfer.tk%3A6969&amp;tr=udp%3A%2F%2Fexodus.desync.com%3A6969","seeders":25,"leechers":13,"uploader":".NVEE","files":-1,"time":1405350274,"description":"\nFULL_INFOs\n\n\n99.99% --- SYNCED GUARANTEED \n\n&quot;Totally scrutinized / analyzed to be a verified torrent.&quot;\n___________________________________________\n\nSource : Blu-ray ~ 1080p\n\nSpoken Language : English\n\nAudio : 6 ~ Channels Only\n\n\nSubs Info : English ~ .srt\n\nAll .srt &amp; .idx subs can be turned On/Off\n_____________________________________\n\n\n  &lt;a href=&quot;\nhttp://www.imdb.com/title/tt1206543/&quot; rel=&quot;nofollow&quot; target=&quot;_NEW&quot;&gt;\nhttp://www.imdb.com/title/tt1206543/&lt;/a&gt;\n\n\n\n---------------------------------------------------------------------------------\n\n\nGeneral Metadata\n\nComplete name : Out of the Furnace.2013.1080p.BluRay.5.1.x264 . NVEE.mp4\nFormat : MPEG-4\nFormat profile : Base Media\nCodec ID : isom\nFile size : 2.60 GiB\nDuration : 1h 56mn\nOverall bit rate : 3 210 Kbps\nEncoded date : UTC 2014-03-08 15:30:17\nTagged date : UTC 2014-03-08 15:30:17\n\n\nVideo\n\nID : 1\nFormat : AVC\nFormat/Info : Advanced Video Codec\nFormat profile : &lt;a class=&quot;__cf_email__&quot; href=&quot;/cdn-cgi/l/email-protection&quot; data-cfemail=&quot;81c9e8e6e9c1cdb5afb1&quot;&gt;[email&amp;#160;protected]&lt;/a&gt;&lt;script cf-hash='f9e31' type=&quot;text/javascript&quot;&gt;\n/* &lt;![CDATA[ */!function(){try{var t=&quot;currentScript&quot;in document?document.currentScript:function(){for(var t=document.getElementsByTagName(&quot;script&quot;),e=t.length;e--;)if(t[e].getAttribute(&quot;cf-hash&quot;))return t[e]}();if(t&amp;&amp;t.previousSibling){var e,r,n,i,c=t.previousSibling,a=c.getAttribute(&quot;data-cfemail&quot;);if(a){for(e=&quot;&quot;,r=parseInt(a.substr(0,2),16),n=2;a.length-n;n+=2)i=parseInt(a.substr(n,2),16)^r,e+=String.fromCharCode(i);e=document.createTextNode(e),c.parentNode.replaceChild(e,c)}}}catch(u){}}();/* ]]&gt; */&lt;/script&gt;\nFormat settings, CABAC : Yes\nFormat settings, ReFrames : 3 frames\nCodec ID : avc1\nCodec ID/Info : Advanced Video Coding\nDuration : 1h 56mn\nBit rate : 2 636 Kbps\nMaximum bit rate : 14.5 Mbps\nWidth : 1 920 pixels\nHeight : 800 pixels\nDisplay aspect ratio : 2.40:1\nFrame rate mode : Constant\nFrame rate : 23.976 fps\nColor space : YUV\nChroma subsampling : 4:2:0\nBit depth : 8 bits\nScan type : Progressive\nBits/(Pixel*Frame) : 0.072\nStream size : 2.13 GiB (82%)\nWriting library : x264 core 138 r2358 9e941d1\n\n\nAudio\n\nID : 2\nFormat : AC-3\nFormat/Info : Audio Coding 3\nMode extension : CM (complete main)\nFormat settings, Endianness : Big\nCodec ID : ac-3\nDuration : 1h 56mn\nBit rate mode : Constant\nBit rate : 576 Kbps\nChannel(s) : 6 channels\nChannel positions : Front: L C R, Side: L R, LFE\nSampling rate : 48.0 KHz\nBit depth : 16 bits\nCompression mode : Lossy\nStream size : 478 MiB (18%)\nLanguage : English\nEncoded date : UTC 2014-03-08 15:42:35\nTagged date : UTC 2014-03-08 15:46:17\t\n\n\nSynopsis\n\nAfter getting off work at a North Braddock steel mill, Russell Baze (Bale) catches his brother Rodney (Affleck) at a horse racing simulcast where Rodney had just bet on a losing horse. Russell inquires as to where Rodney got the money to which Rodney responds that John Petty (Dafoe) had loaned it to him. Petty owns a bar and runs several illegal games. Russell vists Petty at the bar and gives him his paycheck to pay off some of Rodney's debt, promising to pay the rest when his next paycheck comes in. Driving home after leaving the bar intoxicated, Russell hits another car killing its occupants, including a little boy. He is incarcerated for vehicular manslaughter. While in prison is informed that his father has passed away, and that his girlfriend Lena (Saldana) has left him for the small town police chief, Wesley (Whitaker).\n\nEnj0y !\n","torrent":{"xt":"urn:btih:ab2db5676274fb77274c4d93536f6ba3211b7784","amp;dn":"Out+of+the+Furnace+2013+1080p.BluRay.5.1+x264+.+NVEE","amp;tr":["udp%3A%2F%2Ftracker.openbittorrent.com%3A80","udp%3A%2F%2Fopen.demonii.com%3A1337","udp%3A%2F%2Ftracker.coppersurfer.tk%3A6969","udp%3A%2F%2Fexodus.desync.com%3A6969"],"infoHash":"ab2db5676274fb77274c4d93536f6ba3211b7784","infoHashBuffer":{"type":"Buffer","data":[171,45,181,103,98,116,251,119,39,76,77,147,83,111,107,163,33,27,119,132]},"announce":[],"urlList":[]}}